<svg id="visual" viewBox="0 0 1920 1080" width="1920" height="1080" xmlns="http://www.w3.org/2000/svg" xmlns:xlink="http://www.w3.org/1999/xlink" version="1.1"><path d="M0 23L175 23L349 44L524 33L698 23L873 66L1047 87L1222 44L1396 66L1571 44L1745 109L1920 23L1920 0L1745 0L1571 0L1396 0L1222 0L1047 0L873 0L698 0L524 0L349 0L175 0L0 0Z" fill="#191c25"></path><path d="M0 120L175 109L349 109L524 66L698 98L873 77L1047 185L1222 120L1396 120L1571 77L1745 141L1920 77L1920 21L1745 107L1571 42L1396 64L1222 42L1047 85L873 64L698 21L524 31L349 42L175 21L0 21Z" fill="#1d2937"></path><path d="M0 152L175 239L349 163L524 174L698 239L873 228L1047 271L1222 141L1396 185L1571 174L1745 195L1920 98L1920 75L1745 139L1571 75L1396 118L1222 118L1047 183L873 75L698 96L524 64L349 107L175 107L0 118Z" fill="#1d3749"></path><path d="M0 303L175 347L349 368L524 336L698 357L873 379L1047 357L1222 228L1396 347L1571 303L1745 239L1920 185L1920 96L1745 193L1571 172L1396 183L1222 139L1047 269L873 226L698 237L524 172L349 161L175 237L0 150Z" fill="#15475a"></path><path d="M0 390L175 465L349 465L524 379L698 444L873 465L1047 465L1222 336L1396 465L1571 422L1745 314L1920 217L1920 183L1745 237L1571 301L1396 345L1222 226L1047 355L873 377L698 355L524 334L349 366L175 345L0 301Z" fill="#005769"></path><path d="M0 498L175 660L349 671L524 487L698 487L873 692L1047 660L1222 573L1396 584L1571 638L1745 552L1920 411L1920 215L1745 312L1571 420L1396 463L1222 334L1047 463L873 463L698 442L524 377L349 463L175 463L0 388Z" fill="#006875"></path><path d="M0 541L175 779L349 703L524 617L698 509L873 725L1047 714L1222 660L1396 703L1571 757L1745 649L1920 498L1920 409L1745 550L1571 636L1396 582L1222 571L1047 658L873 690L698 485L524 485L349 669L175 658L0 496Z" fill="#00797c"></path><path d="M0 725L175 908L349 995L524 725L698 779L873 800L1047 941L1222 822L1396 876L1571 887L1745 789L1920 876L1920 496L1745 647L1571 755L1396 701L1222 658L1047 712L873 723L698 507L524 615L349 701L175 777L0 539Z" fill="#008a7f"></path><path d="M0 1081L175 1081L349 1081L524 1081L698 1081L873 1081L1047 1081L1222 1081L1396 1081L1571 1081L1745 1081L1920 1081L1920 874L1745 787L1571 885L1396 874L1222 820L1047 939L873 798L698 777L524 723L349 993L175 906L0 723Z" fill="#189a7e"></path></svg>